<svg width="764" height="685" viewBox="0 0 764 685" fill="none" xmlns="http://www.w3.org/2000/svg">
<g id="Group 1767303">
<path id="Vector" d="M3.19616 288.117C3.57446 286.72 -4.18074 282.727 3.19616 275.141C10.5731 267.356 4.14189 256.377 4.70935 250.987C5.2768 245.597 9.05985 237.612 12.0863 237.013C14.9235 236.614 15.491 247.194 21.3547 245.198C27.0292 243.202 19.8415 235.816 25.1377 231.424C30.4339 227.032 42.3505 226.034 50.8623 215.454C59.3741 204.674 60.6982 206.072 73.7496 206.471C86.801 206.87 93.7997 197.089 100.42 198.087C107.04 199.085 106.851 190.701 118.579 190.102C130.306 189.503 138.629 186.509 148.464 177.326C158.3 168.343 155.463 163.951 160.759 167.345C166.055 170.738 173.432 149.379 169.46 149.179C165.488 148.979 161.327 141.992 165.488 139.597C169.46 137.401 167.38 130.015 173.243 126.821C179.107 123.627 185.538 118.237 186.106 122.23C186.673 126.222 186.106 133.009 191.023 138C195.941 142.991 198.4 142.591 199.914 139.597C201.427 136.603 198.779 131.812 199.914 129.217C201.049 126.621 193.293 115.443 198.968 115.243C204.642 115.043 211.641 118.237 216.748 115.243C222.044 112.249 215.802 108.456 216.748 104.264C217.694 100.072 214.667 94.2824 222.233 93.8832C229.799 93.6836 228.097 97.676 229.989 87.2956C231.88 76.9152 231.88 74.9189 237.176 74.9189C242.473 74.9189 243.986 61.9434 250.795 62.5423C257.416 63.3408 257.416 67.3332 267.252 68.3314C277.087 69.3295 280.114 80.708 278.411 80.3088C276.709 80.1091 278.979 86.4971 278.79 89.2918C278.601 92.0866 282.005 92.4858 283.897 90.0903C285.788 87.4952 287.68 86.0979 291.463 86.8964C295.246 87.6948 300.353 92.4858 306.217 90.4896C312.08 88.4934 310 85.2994 310 82.305C310 79.3107 308.865 74.5197 306.028 72.7231C303.19 70.9265 304.136 66.1355 309.054 64.1393C313.972 62.143 310.567 50.3652 315.863 50.9641C321.349 51.563 318.89 45.9735 320.214 41.9811C321.538 37.9886 324.186 38.9867 334.968 36.9905C345.749 34.9942 348.776 30.2033 357.288 31.0018C365.799 31.8003 367.502 33.1976 367.313 25.013C367.123 16.8285 368.826 17.8266 364.286 15.4311C359.747 13.2353 355.018 9.44241 356.531 6.84731C358.044 4.2522 358.99 11.0394 364.664 12.4368C370.339 13.8341 373.176 14.0338 375.635 16.6289C378.094 19.4236 379.607 21.4198 387.552 20.821C395.307 20.2221 392.848 24.8134 398.523 26.8097C404.197 28.8059 410.817 34.595 419.14 31.6006C427.463 28.6063 430.867 26.0112 433.326 30.0036C435.975 33.9961 437.299 30.2033 441.649 31.2014C446 32.1995 445.621 36.9905 441.649 39.7852C437.677 42.5799 439.947 47.7701 437.299 49.7664C434.65 51.7626 433.516 46.5724 429.733 46.9716C425.95 47.5705 419.329 50.5649 424.436 55.9547C429.733 61.5442 429.922 62.7419 426.328 64.9378C422.734 67.1336 411.574 79.7099 417.438 83.5028C423.301 87.2956 437.109 95.4802 439.001 101.07C440.892 106.659 442.784 104.264 451.296 108.256C459.808 112.249 464.347 120.633 469.643 122.629C474.94 124.625 484.208 123.228 489.693 132.61C495.179 142.192 515.229 143.19 520.336 135.804C525.632 128.618 527.524 119.235 531.496 117.04C535.468 114.844 528.47 99.4726 533.955 92.4858C539.44 85.499 536.792 80.1091 536.981 72.3238C537.17 64.5385 530.361 60.3464 534.144 55.5555C537.927 50.7645 534.522 46.5724 537.36 42.5799C540.197 38.5875 542.656 39.5856 543.413 38.7871C544.169 37.9886 535.846 33.7965 538.873 29.804C541.899 25.8115 541.332 26.61 543.413 18.0262C545.493 9.44241 553.438 -3.3335 555.329 2.45558C557.221 8.24466 556.086 12.0375 559.112 17.8266C562.138 23.6157 567.435 27.6082 565.354 33.5969C563.273 39.5856 571.596 39.5856 570.839 48.1694C570.083 56.7532 571.407 76.1167 577.649 76.5159C584.08 77.1148 586.917 68.3314 590.889 74.7193C594.862 81.3069 607.535 81.7061 606.589 90.29C605.643 98.8738 600.347 116.64 609.426 121.83C618.506 127.021 614.155 128.418 618.695 136.603C623.234 144.787 616.614 140.196 618.695 149.977C620.775 159.759 628.72 155.567 624.18 162.953C619.64 170.539 629.855 172.934 634.016 174.731C637.988 176.527 647.257 176.527 647.824 181.917C648.392 187.507 650.472 190.9 659.93 192.697C669.387 194.693 670.333 196.49 669.009 201.68C667.496 206.87 687.168 229.627 689.059 238.81C690.951 247.993 704.002 242.603 705.704 254.78C707.407 267.156 718.945 275.341 730.672 285.921C742.4 296.501 738.995 292.509 741.076 300.494C743.156 308.478 753.749 313.269 752.046 321.254C750.344 329.239 752.992 348.204 757.532 358.584C762.072 369.164 765.098 380.343 761.126 382.738C757.154 385.134 763.585 393.518 757.532 402.9C751.668 412.283 751.668 429.051 751.101 435.239C750.533 441.428 745.237 438.034 742.778 448.215C740.319 458.396 735.59 464.983 730.861 471.571C726.133 478.159 726.133 487.541 720.836 488.339C715.54 489.138 716.297 489.337 716.864 497.123C717.432 504.908 705.704 514.49 706.839 522.675C707.974 530.859 706.65 542.238 700.976 549.823C695.301 557.409 690.951 573.179 691.707 580.965C692.464 588.75 686.978 595.338 682.25 596.935C677.521 598.731 671.279 601.127 660.308 601.127C649.337 601.127 646.689 610.709 639.88 615.1C633.07 619.692 625.126 614.901 620.397 622.087C615.668 629.274 608.102 616.098 611.129 613.104C614.155 610.11 605.265 608.313 601.104 609.91C596.942 611.507 598.456 604.321 601.86 601.726C605.265 598.931 595.24 596.935 592.403 601.925C589.565 606.916 593.538 610.908 587.485 614.701C581.243 618.494 577.46 623.485 574.244 624.283C570.839 625.082 568.002 622.087 558.355 618.294C548.52 614.501 544.547 607.515 533.955 609.311C523.173 611.108 521.093 606.517 512.013 601.326C502.934 596.136 495.368 580.565 500.286 576.174C505.204 571.982 499.719 555.812 494.044 551.82C488.369 547.827 479.101 542.038 475.318 541.838C471.535 541.639 471.724 533.854 476.831 529.063C481.749 524.272 475.696 525.07 475.318 516.087C475.129 507.104 473.237 509.899 468.509 511.496C463.78 513.292 467.374 520.279 463.969 525.27C460.564 530.26 458.673 530.46 453.944 531.059C449.215 531.658 447.513 538.245 444.865 537.846C442.217 537.247 441.082 530.061 448.459 528.464C455.835 526.867 457.349 524.671 458.484 516.886C459.618 509.1 455.646 507.902 461.132 502.113C466.617 496.324 467.563 493.33 466.995 490.136C466.428 486.942 460.753 478.757 456.592 485.145C452.242 491.334 455.079 492.931 449.404 496.125C443.73 499.319 441.838 491.134 437.109 503.311C432.381 515.488 433.326 521.078 425.382 520.079C417.627 519.081 418.194 506.505 413.655 499.518C409.115 492.531 399.09 489.936 401.738 481.353C404.386 472.769 393.605 459.594 383.012 458.795C372.23 457.997 368.069 459.793 360.881 454.803C353.694 449.812 345.749 445.021 337.616 446.019C329.482 447.017 299.029 446.618 289.761 450.61C280.492 454.603 273.872 461.989 261.955 462.189C250.039 462.388 237.555 459.194 231.691 464.983C225.827 470.772 223.936 478.358 210.884 478.558C197.833 478.757 207.48 500.117 189.889 501.315C172.297 502.513 176.648 511.296 160.381 505.507C144.303 499.718 130.873 502.912 123.307 504.309C115.741 505.507 120.659 520.678 112.336 517.884C104.014 515.089 100.609 517.085 93.7997 521.876C86.9902 526.667 68.2642 530.859 56.1585 523.673C44.0529 516.486 45.9444 518.083 38 515.089C30.2448 512.095 24.7594 495.725 32.5146 494.328C40.2698 492.731 41.4047 495.326 41.783 489.537C42.3505 483.748 39.1349 475.963 46.3227 470.972C53.5104 465.981 45.1878 456.998 44.242 451.209C43.2962 445.42 31.3797 434.241 32.3255 415.477C33.2712 396.912 34.217 393.718 29.299 387.529C24.3811 381.541 25.8943 376.55 24.3811 369.963C22.6787 363.375 15.491 368.366 13.5995 356.189C11.708 343.812 -2.8567 329.04 1.49378 328.241C5.84426 327.443 7.16833 334.43 9.62729 327.642C12.0863 320.855 8.49237 315.266 13.2212 319.458C17.9499 323.45 15.6801 328.042 17.9499 323.45C20.4089 318.859 14.1669 311.872 13.9778 306.682C13.2212 302.889 3.19616 288.117 3.19616 288.117Z" stroke="#0D8A9B" stroke-opacity="0.5" stroke-width="0.8" stroke-miterlimit="10" stroke-dasharray="8 8"/>
<path id="Vector_2" d="M595.824 645.906C595.824 645.906 591.515 641.36 593.543 640.291C595.444 639.221 597.979 637.216 602.922 641.628C607.866 646.173 611.415 649.649 619.02 646.975C626.625 644.301 633.47 636.013 636.892 642.296C640.314 648.579 640.061 641.628 638.793 650.183C637.526 658.739 647.032 653.793 640.948 659.541C634.737 665.423 635.371 667.429 632.836 674.113C630.301 680.797 624.597 679.326 620.921 682.134C617.372 685.075 613.95 685.075 610.527 681.198C607.105 677.187 596.078 670.236 599.753 667.429C603.303 664.621 604.824 663.151 601.021 656.199C597.218 649.248 595.824 645.906 595.824 645.906Z" stroke="#0D8A9B" stroke-opacity="0.5" stroke-width="2" stroke-miterlimit="10" stroke-dasharray="8 8"/>
<g id="Group 1767301">
<g id="Vector_3">
<path d="M545.796 522.676C545.796 524.566 544.362 526.078 542.569 526.078C540.776 526.078 539.342 524.566 539.342 522.676C539.342 520.785 540.776 519.273 542.569 519.273C544.362 519.273 545.796 520.785 545.796 522.676Z" fill="#888888" fill-opacity="0.7"/>
<path d="M188.252 325.337C188.252 327.227 186.818 328.739 185.026 328.739C183.233 328.739 181.799 327.227 181.799 325.337C181.799 323.447 183.233 321.935 185.026 321.935C186.818 321.935 188.252 323.447 188.252 325.337Z" fill="#888888" fill-opacity="0.7"/>
<path d="M366.378 221.904C366.378 223.795 364.944 225.307 363.152 225.307C361.359 225.307 359.925 223.795 359.925 221.904C359.925 220.014 361.359 218.502 363.152 218.502C364.944 218.502 366.378 220.068 366.378 221.904Z" fill="#888888" fill-opacity="0.7"/>
<path d="M388.322 402.912C388.322 404.802 386.888 406.314 385.095 406.314C383.302 406.314 381.868 404.802 381.868 402.912C381.868 401.022 383.302 399.509 385.095 399.509C386.888 399.509 388.322 401.022 388.322 402.912Z" fill="#888888" fill-opacity="0.7"/>
<path d="M549.668 276.342C549.668 278.233 548.234 279.745 546.441 279.745C544.648 279.745 543.214 278.233 543.214 276.342C543.214 274.452 544.648 272.94 546.441 272.94C548.234 272.94 549.668 274.506 549.668 276.342Z" fill="#888888" fill-opacity="0.7"/>
<path d="M609.044 389.301C609.044 391.192 607.61 392.704 605.818 392.704C604.025 392.704 602.591 391.192 602.591 389.301C602.591 387.411 604.025 385.899 605.818 385.899C607.61 385.899 609.044 387.411 609.044 389.301Z" fill="#888888" fill-opacity="0.7"/>
</g>
<g id="Vector_4">
<path d="M513.01 494.958L516.79 506.261H516.94L520.72 494.958H522.337L517.661 508.385H516.069L511.393 494.958H513.01Z" fill="#888888" fill-opacity="0.7"/>
<path d="M524.121 508.385V498.315H525.589V508.385H524.121ZM524.868 496.636C524.582 496.636 524.335 496.534 524.128 496.328C523.924 496.123 523.823 495.876 523.823 495.587C523.823 495.299 523.924 495.052 524.128 494.846C524.335 494.641 524.582 494.538 524.868 494.538C525.154 494.538 525.398 494.641 525.601 494.846C525.809 495.052 525.912 495.299 525.912 495.587C525.912 495.876 525.809 496.123 525.601 496.328C525.398 496.534 525.154 496.636 524.868 496.636Z" fill="#888888" fill-opacity="0.7"/>
<path d="M532.157 508.595C531.261 508.595 530.49 508.372 529.844 507.926C529.197 507.48 528.699 506.866 528.351 506.084C528.003 505.301 527.829 504.408 527.829 503.402C527.829 502.38 528.007 501.477 528.364 500.695C528.724 499.908 529.226 499.294 529.868 498.852C530.515 498.406 531.27 498.184 532.132 498.184C532.803 498.184 533.409 498.315 533.948 498.577C534.486 498.839 534.928 499.206 535.272 499.678C535.616 500.15 535.829 500.701 535.912 501.331H534.445C534.333 500.872 534.084 500.465 533.699 500.111C533.317 499.753 532.803 499.573 532.157 499.573C531.585 499.573 531.083 499.731 530.652 500.046C530.225 500.356 529.891 500.795 529.651 501.363C529.415 501.927 529.296 502.589 529.296 503.35C529.296 504.128 529.412 504.805 529.645 505.382C529.881 505.959 530.212 506.407 530.639 506.726C531.071 507.045 531.576 507.205 532.157 507.205C532.538 507.205 532.884 507.135 533.195 506.995C533.506 506.855 533.769 506.654 533.985 506.392C534.2 506.13 534.354 505.815 534.445 505.448H535.912C535.829 506.042 535.624 506.578 535.297 507.054C534.973 507.526 534.544 507.902 534.01 508.182C533.479 508.457 532.861 508.595 532.157 508.595Z" fill="#888888" fill-opacity="0.7"/>
<path d="M542.211 498.315V499.626H537.262V498.315H542.211ZM538.704 495.902H540.172V505.5C540.172 505.937 540.232 506.265 540.352 506.484C540.476 506.698 540.634 506.842 540.825 506.916C541.02 506.986 541.225 507.021 541.44 507.021C541.602 507.021 541.735 507.013 541.838 506.995C541.942 506.973 542.025 506.956 542.087 506.943L542.385 508.332C542.286 508.372 542.147 508.411 541.969 508.451C541.791 508.494 541.565 508.516 541.291 508.516C540.876 508.516 540.47 508.422 540.072 508.234C539.678 508.046 539.351 507.76 539.09 507.375C538.833 506.991 538.704 506.506 538.704 505.92V495.902Z" fill="#888888" fill-opacity="0.7"/>
<path d="M548.196 508.595C547.334 508.595 546.577 508.378 545.927 507.946C545.28 507.513 544.774 506.908 544.409 506.13C544.049 505.352 543.868 504.443 543.868 503.402C543.868 502.353 544.049 501.438 544.409 500.655C544.774 499.873 545.28 499.265 545.927 498.833C546.577 498.4 547.334 498.184 548.196 498.184C549.058 498.184 549.813 498.4 550.46 498.833C551.11 499.265 551.616 499.873 551.977 500.655C552.342 501.438 552.524 502.353 552.524 503.402C552.524 504.443 552.342 505.352 551.977 506.13C551.616 506.908 551.11 507.513 550.46 507.946C549.813 508.378 549.058 508.595 548.196 508.595ZM548.196 507.205C548.851 507.205 549.39 507.028 549.813 506.674C550.236 506.32 550.549 505.854 550.752 505.277C550.955 504.7 551.057 504.075 551.057 503.402C551.057 502.729 550.955 502.102 550.752 501.521C550.549 500.939 550.236 500.469 549.813 500.111C549.39 499.753 548.851 499.573 548.196 499.573C547.541 499.573 547.002 499.753 546.579 500.111C546.157 500.469 545.844 500.939 545.641 501.521C545.437 502.102 545.336 502.729 545.336 503.402C545.336 504.075 545.437 504.7 545.641 505.277C545.844 505.854 546.157 506.32 546.579 506.674C547.002 507.028 547.541 507.205 548.196 507.205Z" fill="#888888" fill-opacity="0.7"/>
<path d="M558.918 498.315V499.626H553.968V498.315H558.918ZM555.411 495.902H556.878V505.5C556.878 505.937 556.938 506.265 557.059 506.484C557.183 506.698 557.34 506.842 557.531 506.916C557.726 506.986 557.931 507.021 558.147 507.021C558.308 507.021 558.441 507.013 558.545 506.995C558.648 506.973 558.731 506.956 558.793 506.943L559.092 508.332C558.992 508.372 558.853 508.411 558.675 508.451C558.497 508.494 558.271 508.516 557.997 508.516C557.583 508.516 557.177 508.422 556.779 508.234C556.385 508.046 556.057 507.76 555.796 507.375C555.539 506.991 555.411 506.506 555.411 505.92V495.902Z" fill="#888888" fill-opacity="0.7"/>
<path d="M561.125 508.385V498.315H562.593V508.385H561.125ZM561.871 496.636C561.585 496.636 561.339 496.534 561.131 496.328C560.928 496.123 560.827 495.876 560.827 495.587C560.827 495.299 560.928 495.052 561.131 494.846C561.339 494.641 561.585 494.538 561.871 494.538C562.157 494.538 562.402 494.641 562.605 494.846C562.812 495.052 562.916 495.299 562.916 495.587C562.916 495.876 562.812 496.123 562.605 496.328C562.402 496.534 562.157 496.636 561.871 496.636Z" fill="#888888" fill-opacity="0.7"/>
<path d="M568.091 508.621C567.486 508.621 566.936 508.501 566.443 508.26C565.95 508.016 565.558 507.664 565.268 507.205C564.978 506.742 564.833 506.182 564.833 505.526C564.833 504.95 564.94 504.482 565.156 504.123C565.372 503.761 565.66 503.477 566.02 503.271C566.381 503.066 566.779 502.913 567.214 502.812C567.654 502.707 568.095 502.624 568.539 502.563C569.119 502.484 569.589 502.425 569.95 502.386C570.315 502.342 570.58 502.27 570.746 502.17C570.916 502.069 571.001 501.894 571.001 501.645V501.593C571.001 500.946 570.833 500.443 570.497 500.085C570.166 499.726 569.662 499.547 568.986 499.547C568.286 499.547 567.737 499.709 567.339 500.032C566.941 500.356 566.661 500.701 566.499 501.068L565.106 500.544C565.355 499.932 565.687 499.455 566.101 499.115C566.52 498.769 566.976 498.529 567.469 498.393C567.967 498.253 568.456 498.184 568.937 498.184C569.243 498.184 569.596 498.223 569.994 498.302C570.396 498.376 570.783 498.531 571.156 498.767C571.534 499.003 571.847 499.359 572.095 499.836C572.344 500.312 572.468 500.95 572.468 501.75V508.385H571.001V507.021H570.926C570.827 507.24 570.661 507.474 570.429 507.723C570.197 507.972 569.888 508.184 569.502 508.359C569.117 508.534 568.646 508.621 568.091 508.621ZM568.315 507.231C568.895 507.231 569.384 507.111 569.782 506.87C570.184 506.63 570.487 506.32 570.69 505.94C570.897 505.559 571.001 505.159 571.001 504.74V503.324C570.939 503.402 570.802 503.474 570.591 503.54C570.383 503.601 570.143 503.656 569.869 503.704C569.6 503.748 569.337 503.787 569.08 503.822C568.827 503.852 568.622 503.879 568.464 503.901C568.083 503.953 567.726 504.038 567.395 504.156C567.067 504.27 566.802 504.443 566.599 504.674C566.4 504.901 566.3 505.212 566.3 505.605C566.3 506.143 566.489 506.549 566.866 506.825C567.247 507.096 567.73 507.231 568.315 507.231Z" fill="#888888" fill-opacity="0.7"/>
<path d="M132.72 299.169V311.046H131.4L125.261 301.721H125.151V311.046H123.787V299.169H125.107L131.268 308.518H131.378V299.169H132.72Z" fill="#888888" fill-opacity="0.7"/>
<path d="M138.706 311.232C137.943 311.232 137.274 311.041 136.698 310.658C136.126 310.275 135.679 309.74 135.356 309.051C135.037 308.363 134.877 307.559 134.877 306.639C134.877 305.711 135.037 304.901 135.356 304.209C135.679 303.517 136.126 302.979 136.698 302.597C137.274 302.214 137.943 302.022 138.706 302.022C139.468 302.022 140.136 302.214 140.708 302.597C141.284 302.979 141.731 303.517 142.05 304.209C142.373 304.901 142.534 305.711 142.534 306.639C142.534 307.559 142.373 308.363 142.05 309.051C141.731 309.74 141.284 310.275 140.708 310.658C140.136 311.041 139.468 311.232 138.706 311.232ZM138.706 310.003C139.285 310.003 139.762 309.846 140.136 309.533C140.51 309.22 140.787 308.808 140.966 308.297C141.146 307.787 141.236 307.234 141.236 306.639C141.236 306.043 141.146 305.489 140.966 304.974C140.787 304.46 140.51 304.044 140.136 303.727C139.762 303.41 139.285 303.252 138.706 303.252C138.126 303.252 137.65 303.41 137.276 303.727C136.902 304.044 136.625 304.46 136.445 304.974C136.265 305.489 136.175 306.043 136.175 306.639C136.175 307.234 136.265 307.787 136.445 308.297C136.625 308.808 136.902 309.22 137.276 309.533C137.65 309.846 138.126 310.003 138.706 310.003Z" fill="#888888" fill-opacity="0.7"/>
<path d="M144.516 311.046V302.138H145.77V303.484H145.858C146.012 303.043 146.29 302.685 146.694 302.411C147.097 302.136 147.552 301.999 148.058 301.999C148.153 301.999 148.272 302.001 148.415 302.005C148.558 302.009 148.667 302.015 148.74 302.022V303.414C148.696 303.403 148.595 303.385 148.437 303.362C148.283 303.335 148.12 303.321 147.948 303.321C147.537 303.321 147.17 303.412 146.848 303.594C146.529 303.772 146.276 304.019 146.089 304.336C145.905 304.65 145.814 305.007 145.814 305.409V311.046H144.516Z" fill="#888888" fill-opacity="0.7"/>
<path d="M154.482 302.138V303.298H150.104V302.138H154.482ZM151.38 300.004H152.678V308.495C152.678 308.881 152.731 309.171 152.838 309.365C152.948 309.554 153.087 309.682 153.256 309.747C153.428 309.809 153.61 309.84 153.8 309.84C153.943 309.84 154.061 309.832 154.152 309.817C154.244 309.798 154.317 309.782 154.372 309.771L154.636 311C154.548 311.035 154.426 311.07 154.268 311.104C154.11 311.143 153.91 311.162 153.668 311.162C153.302 311.162 152.942 311.079 152.59 310.913C152.242 310.747 151.952 310.494 151.721 310.153C151.494 309.813 151.38 309.384 151.38 308.866V300.004Z" fill="#888888" fill-opacity="0.7"/>
<path d="M157.915 305.688V311.046H156.617V299.169H157.915V303.53H158.025C158.223 303.07 158.52 302.705 158.916 302.434C159.315 302.16 159.847 302.022 160.511 302.022C161.087 302.022 161.591 302.144 162.023 302.388C162.456 302.627 162.792 302.997 163.03 303.495C163.272 303.99 163.393 304.621 163.393 305.386V311.046H162.095V305.479C162.095 304.771 161.921 304.224 161.572 303.838C161.228 303.447 160.749 303.252 160.137 303.252C159.711 303.252 159.33 303.347 158.993 303.536C158.659 303.726 158.395 304.002 158.201 304.365C158.01 304.729 157.915 305.17 157.915 305.688Z" fill="#888888" fill-opacity="0.7"/>
<path d="M169.31 311.232C168.496 311.232 167.794 311.043 167.204 310.664C166.617 310.281 166.164 309.747 165.845 309.063C165.53 308.375 165.372 307.574 165.372 306.662C165.372 305.75 165.53 304.945 165.845 304.249C166.164 303.55 166.608 303.004 167.176 302.614C167.748 302.22 168.415 302.022 169.178 302.022C169.618 302.022 170.053 302.1 170.482 302.254C170.911 302.409 171.301 302.66 171.653 303.008C172.005 303.352 172.286 303.809 172.495 304.377C172.704 304.945 172.808 305.645 172.808 306.476V307.056H166.296V305.873H171.488C171.488 305.371 171.393 304.922 171.202 304.528C171.015 304.133 170.748 303.822 170.399 303.594C170.055 303.366 169.648 303.252 169.178 303.252C168.661 303.252 168.214 303.387 167.836 303.658C167.462 303.925 167.174 304.273 166.972 304.702C166.771 305.131 166.67 305.591 166.67 306.082V306.871C166.67 307.544 166.78 308.114 167 308.582C167.224 309.046 167.534 309.399 167.93 309.643C168.326 309.883 168.786 310.003 169.31 310.003C169.651 310.003 169.959 309.952 170.234 309.852C170.513 309.747 170.753 309.593 170.955 309.388C171.157 309.179 171.312 308.92 171.422 308.611L172.676 308.982C172.544 309.43 172.323 309.825 172.011 310.165C171.699 310.501 171.314 310.764 170.856 310.954C170.397 311.139 169.882 311.232 169.31 311.232Z" fill="#888888" fill-opacity="0.7"/>
<path d="M174.783 311.046V302.138H176.037V303.484H176.125C176.279 303.043 176.558 302.685 176.961 302.411C177.365 302.136 177.819 301.999 178.325 301.999C178.421 301.999 178.54 302.001 178.683 302.005C178.826 302.009 178.934 302.015 179.007 302.022V303.414C178.963 303.403 178.863 303.385 178.705 303.362C178.551 303.335 178.388 303.321 178.215 303.321C177.805 303.321 177.438 303.412 177.115 303.594C176.796 303.772 176.543 304.019 176.356 304.336C176.173 304.65 176.081 305.007 176.081 305.409V311.046H174.783Z" fill="#888888" fill-opacity="0.7"/>
<path d="M181.844 305.688V311.046H180.546V302.138H181.8V303.53H181.91C182.108 303.078 182.409 302.714 182.812 302.44C183.216 302.162 183.736 302.022 184.375 302.022C184.947 302.022 185.447 302.146 185.876 302.394C186.305 302.637 186.639 303.008 186.877 303.507C187.116 304.002 187.235 304.628 187.235 305.386V311.046H185.937V305.479C185.937 304.779 185.764 304.234 185.42 303.843C185.075 303.449 184.602 303.252 184.001 303.252C183.586 303.252 183.216 303.347 182.889 303.536C182.567 303.726 182.312 304.002 182.125 304.365C181.938 304.729 181.844 305.17 181.844 305.688Z" fill="#888888" fill-opacity="0.7"/>
<path d="M193.281 302.138V303.298H188.903V302.138H193.281ZM190.179 300.004H191.477V308.495C191.477 308.881 191.53 309.171 191.637 309.365C191.747 309.554 191.886 309.682 192.055 309.747C192.227 309.809 192.408 309.84 192.599 309.84C192.742 309.84 192.859 309.832 192.951 309.817C193.043 309.798 193.116 309.782 193.171 309.771L193.435 311C193.347 311.035 193.224 311.07 193.067 311.104C192.909 311.143 192.709 311.162 192.467 311.162C192.1 311.162 191.741 311.079 191.389 310.913C191.041 310.747 190.751 310.494 190.52 310.153C190.293 309.813 190.179 309.384 190.179 308.866V300.004Z" fill="#888888" fill-opacity="0.7"/>
<path d="M198.685 311.232C197.871 311.232 197.169 311.043 196.579 310.664C195.992 310.281 195.539 309.747 195.22 309.063C194.905 308.375 194.747 307.574 194.747 306.662C194.747 305.75 194.905 304.945 195.22 304.249C195.539 303.55 195.983 303.004 196.551 302.614C197.123 302.22 197.791 302.022 198.553 302.022C198.993 302.022 199.428 302.1 199.857 302.254C200.286 302.409 200.676 302.66 201.029 303.008C201.381 303.352 201.661 303.809 201.87 304.377C202.079 304.945 202.184 305.645 202.184 306.476V307.056H195.671V305.873H200.864C200.864 305.371 200.768 304.922 200.577 304.528C200.39 304.133 200.123 303.822 199.774 303.594C199.43 303.366 199.023 303.252 198.553 303.252C198.036 303.252 197.589 303.387 197.211 303.658C196.837 303.925 196.549 304.273 196.348 304.702C196.146 305.131 196.045 305.591 196.045 306.082V306.871C196.045 307.544 196.155 308.114 196.375 308.582C196.599 309.046 196.909 309.399 197.305 309.643C197.701 309.883 198.161 310.003 198.685 310.003C199.026 310.003 199.334 309.952 199.609 309.852C199.888 309.747 200.128 309.593 200.33 309.388C200.532 309.179 200.687 308.92 200.798 308.611L202.052 308.982C201.92 309.43 201.698 309.825 201.386 310.165C201.074 310.501 200.689 310.764 200.231 310.954C199.773 311.139 199.257 311.232 198.685 311.232Z" fill="#888888" fill-opacity="0.7"/>
<path d="M204.158 311.046V302.138H205.412V303.484H205.5C205.654 303.043 205.933 302.685 206.336 302.411C206.74 302.136 207.195 301.999 207.701 301.999C207.796 301.999 207.915 302.001 208.058 302.005C208.201 302.009 208.309 302.015 208.383 302.022V303.414C208.339 303.403 208.238 303.385 208.08 303.362C207.926 303.335 207.763 303.321 207.591 303.321C207.18 303.321 206.813 303.412 206.49 303.594C206.171 303.772 205.918 304.019 205.731 304.336C205.548 304.65 205.456 305.007 205.456 305.409V311.046H204.158Z" fill="#888888" fill-opacity="0.7"/>
<path d="M209.921 311.046V302.138H211.175V303.484H211.263C211.417 303.043 211.696 302.685 212.1 302.411C212.503 302.136 212.958 301.999 213.464 301.999C213.559 301.999 213.678 302.001 213.821 302.005C213.964 302.009 214.072 302.015 214.146 302.022V303.414C214.102 303.403 214.001 303.385 213.843 303.362C213.689 303.335 213.526 303.321 213.354 303.321C212.943 303.321 212.576 303.412 212.254 303.594C211.935 303.772 211.682 304.019 211.494 304.336C211.311 304.65 211.219 305.007 211.219 305.409V311.046H209.921Z" fill="#888888" fill-opacity="0.7"/>
<path d="M215.684 311.046V302.138H216.983V311.046H215.684ZM216.345 300.654C216.091 300.654 215.873 300.563 215.69 300.381C215.51 300.199 215.42 299.981 215.42 299.726C215.42 299.471 215.51 299.252 215.69 299.07C215.873 298.889 216.091 298.798 216.345 298.798C216.598 298.798 216.814 298.889 216.994 299.07C217.177 299.252 217.269 299.471 217.269 299.726C217.269 299.981 217.177 300.199 216.994 300.381C216.814 300.563 216.598 300.654 216.345 300.654Z" fill="#888888" fill-opacity="0.7"/>
<path d="M223.034 302.138V303.298H218.656V302.138H223.034ZM219.932 300.004H221.23V308.495C221.23 308.881 221.283 309.171 221.39 309.365C221.5 309.554 221.639 309.682 221.808 309.747C221.98 309.809 222.162 309.84 222.352 309.84C222.495 309.84 222.613 309.832 222.704 309.817C222.796 309.798 222.869 309.782 222.924 309.771L223.188 311C223.1 311.035 222.978 311.07 222.82 311.104C222.662 311.143 222.462 311.162 222.22 311.162C221.854 311.162 221.494 311.079 221.142 310.913C220.794 310.747 220.504 310.494 220.273 310.153C220.046 309.813 219.932 309.384 219.932 308.866V300.004Z" fill="#888888" fill-opacity="0.7"/>
<path d="M228.329 311.232C227.566 311.232 226.897 311.041 226.321 310.658C225.749 310.275 225.302 309.74 224.979 309.051C224.66 308.363 224.5 307.559 224.5 306.639C224.5 305.711 224.66 304.901 224.979 304.209C225.302 303.517 225.749 302.979 226.321 302.597C226.897 302.214 227.566 302.022 228.329 302.022C229.091 302.022 229.759 302.214 230.331 302.597C230.906 302.979 231.354 303.517 231.673 304.209C231.996 304.901 232.157 305.711 232.157 306.639C232.157 307.559 231.996 308.363 231.673 309.051C231.354 309.74 230.906 310.275 230.331 310.658C229.759 311.041 229.091 311.232 228.329 311.232ZM228.329 310.003C228.908 310.003 229.385 309.846 229.759 309.533C230.133 309.22 230.41 308.808 230.589 308.297C230.769 307.787 230.859 307.234 230.859 306.639C230.859 306.043 230.769 305.489 230.589 304.974C230.41 304.46 230.133 304.044 229.759 303.727C229.385 303.41 228.908 303.252 228.329 303.252C227.749 303.252 227.273 303.41 226.898 303.727C226.524 304.044 226.248 304.46 226.068 304.974C225.888 305.489 225.798 306.043 225.798 306.639C225.798 307.234 225.888 307.787 226.068 308.297C226.248 308.808 226.524 309.22 226.898 309.533C227.273 309.846 227.749 310.003 228.329 310.003Z" fill="#888888" fill-opacity="0.7"/>
<path d="M234.138 311.046V302.138H235.393V303.484H235.481C235.635 303.043 235.913 302.685 236.317 302.411C236.72 302.136 237.175 301.999 237.681 301.999C237.776 301.999 237.895 302.001 238.038 302.005C238.181 302.009 238.289 302.015 238.363 302.022V303.414C238.319 303.403 238.218 303.385 238.06 303.362C237.906 303.335 237.743 303.321 237.571 303.321C237.16 303.321 236.793 303.412 236.471 303.594C236.152 303.772 235.899 304.019 235.712 304.336C235.528 304.65 235.437 305.007 235.437 305.409V311.046H234.138Z" fill="#888888" fill-opacity="0.7"/>
<path d="M240.995 314.387C240.775 314.387 240.579 314.368 240.406 314.329C240.234 314.294 240.115 314.259 240.049 314.225L240.379 313.018C240.694 313.103 240.973 313.134 241.215 313.111C241.457 313.088 241.671 312.974 241.858 312.769C242.049 312.568 242.223 312.241 242.381 311.789L242.623 311.093L239.499 302.138H240.907L243.239 309.237H243.327L245.659 302.138H247.067L243.481 312.346C243.32 312.806 243.12 313.186 242.881 313.488C242.643 313.793 242.366 314.02 242.051 314.167C241.739 314.313 241.387 314.387 240.995 314.387Z" fill="#888888" fill-opacity="0.7"/>
<path d="M305.251 207.614L302.17 195.736H303.556L305.911 205.41H306.021L308.419 195.736H309.959L312.357 205.41H312.467L314.821 195.736H316.207L313.127 207.614H311.719L309.233 198.149H309.145L306.659 207.614H305.251Z" fill="#888888" fill-opacity="0.7"/>
<path d="M320.487 207.799C319.673 207.799 318.97 207.61 318.38 207.231C317.793 206.848 317.341 206.315 317.021 205.63C316.706 204.942 316.548 204.142 316.548 203.229C316.548 202.317 316.706 201.513 317.021 200.817C317.341 200.117 317.784 199.572 318.353 199.181C318.925 198.787 319.592 198.59 320.355 198.59C320.795 198.59 321.229 198.667 321.658 198.822C322.087 198.976 322.478 199.228 322.83 199.576C323.182 199.92 323.463 200.376 323.672 200.944C323.881 201.513 323.985 202.213 323.985 203.044V203.624H317.473V202.441H322.665C322.665 201.938 322.57 201.49 322.379 201.095C322.192 200.701 321.924 200.39 321.576 200.161C321.231 199.933 320.824 199.819 320.355 199.819C319.838 199.819 319.39 199.955 319.013 200.225C318.639 200.492 318.351 200.84 318.149 201.269C317.947 201.698 317.847 202.158 317.847 202.649V203.438C317.847 204.111 317.957 204.681 318.177 205.149C318.4 205.613 318.71 205.967 319.106 206.21C319.502 206.45 319.962 206.57 320.487 206.57C320.828 206.57 321.136 206.52 321.411 206.419C321.69 206.315 321.93 206.16 322.131 205.955C322.333 205.746 322.489 205.487 322.599 205.178L323.853 205.549C323.721 205.998 323.499 206.392 323.188 206.732C322.876 207.069 322.491 207.332 322.032 207.521C321.574 207.707 321.059 207.799 320.487 207.799Z" fill="#888888" fill-opacity="0.7"/>
<path d="M331.944 200.701L330.778 201.049C330.705 200.844 330.597 200.645 330.454 200.451C330.314 200.254 330.124 200.092 329.882 199.964C329.64 199.837 329.33 199.773 328.952 199.773C328.435 199.773 328.004 199.899 327.659 200.15C327.318 200.397 327.148 200.712 327.148 201.095C327.148 201.435 327.265 201.704 327.5 201.901C327.735 202.098 328.101 202.263 328.6 202.394L329.854 202.719C330.609 202.912 331.172 203.208 331.543 203.606C331.913 204.001 332.098 204.509 332.098 205.132C332.098 205.642 331.959 206.098 331.68 206.5C331.405 206.902 331.02 207.219 330.525 207.451C330.03 207.683 329.454 207.799 328.798 207.799C327.936 207.799 327.223 207.602 326.658 207.208C326.094 206.813 325.736 206.237 325.586 205.48L326.818 205.155C326.935 205.634 327.157 205.994 327.483 206.234C327.813 206.473 328.244 206.593 328.776 206.593C329.381 206.593 329.861 206.458 330.217 206.187C330.576 205.913 330.756 205.584 330.756 205.201C330.756 204.892 330.653 204.633 330.448 204.424C330.243 204.211 329.927 204.053 329.502 203.949L328.094 203.601C327.32 203.407 326.752 203.108 326.389 202.702C326.029 202.292 325.85 201.78 325.85 201.165C325.85 200.662 325.984 200.218 326.251 199.831C326.523 199.444 326.891 199.141 327.357 198.92C327.826 198.7 328.358 198.59 328.952 198.59C329.788 198.59 330.444 198.783 330.921 199.17C331.401 199.556 331.743 200.067 331.944 200.701Z" fill="#888888" fill-opacity="0.7"/>
<path d="M337.727 198.706V199.866H333.348V198.706H337.727ZM334.624 196.572H335.922V205.062C335.922 205.449 335.976 205.739 336.082 205.932C336.192 206.121 336.331 206.249 336.5 206.315C336.672 206.377 336.854 206.408 337.045 206.408C337.188 206.408 337.305 206.4 337.397 206.384C337.488 206.365 337.562 206.35 337.617 206.338L337.881 207.567C337.793 207.602 337.67 207.637 337.512 207.672C337.354 207.71 337.155 207.73 336.912 207.73C336.546 207.73 336.186 207.647 335.834 207.48C335.486 207.314 335.196 207.061 334.965 206.721C334.738 206.38 334.624 205.951 334.624 205.433V196.572Z" fill="#888888" fill-opacity="0.7"/>
<path d="M343.131 207.799C342.317 207.799 341.614 207.61 341.024 207.231C340.437 206.848 339.984 206.315 339.665 205.63C339.35 204.942 339.192 204.142 339.192 203.229C339.192 202.317 339.35 201.513 339.665 200.817C339.984 200.117 340.428 199.572 340.997 199.181C341.569 198.787 342.236 198.59 342.999 198.59C343.439 198.59 343.873 198.667 344.302 198.822C344.731 198.976 345.122 199.228 345.474 199.576C345.826 199.92 346.107 200.376 346.316 200.944C346.525 201.513 346.629 202.213 346.629 203.044V203.624H340.117V202.441H345.309C345.309 201.938 345.214 201.49 345.023 201.095C344.836 200.701 344.568 200.39 344.22 200.161C343.875 199.933 343.468 199.819 342.999 199.819C342.482 199.819 342.034 199.955 341.657 200.225C341.283 200.492 340.995 200.84 340.793 201.269C340.591 201.698 340.491 202.158 340.491 202.649V203.438C340.491 204.111 340.601 204.681 340.821 205.149C341.044 205.613 341.354 205.967 341.75 206.21C342.146 206.45 342.606 206.57 343.131 206.57C343.472 206.57 343.78 206.52 344.055 206.419C344.334 206.315 344.574 206.16 344.775 205.955C344.977 205.746 345.133 205.487 345.243 205.178L346.497 205.549C346.365 205.998 346.143 206.392 345.831 206.732C345.52 207.069 345.135 207.332 344.676 207.521C344.218 207.707 343.703 207.799 343.131 207.799Z" fill="#888888" fill-opacity="0.7"/>
<path d="M348.604 207.614V198.706H349.858V200.051H349.946C350.1 199.61 350.379 199.253 350.782 198.978C351.185 198.704 351.64 198.567 352.146 198.567C352.241 198.567 352.361 198.569 352.504 198.572C352.647 198.576 352.755 198.582 352.828 198.59V199.982C352.784 199.97 352.683 199.953 352.526 199.929C352.372 199.902 352.208 199.889 352.036 199.889C351.625 199.889 351.259 199.98 350.936 200.161C350.617 200.339 350.364 200.587 350.177 200.904C349.993 201.217 349.902 201.575 349.902 201.977V207.614H348.604Z" fill="#888888" fill-opacity="0.7"/>
<path d="M355.665 202.255V207.614H354.367V198.706H355.621V200.098H355.731C355.929 199.645 356.23 199.282 356.633 199.007C357.036 198.729 357.557 198.59 358.195 198.59C358.767 198.59 359.268 198.713 359.697 198.961C360.126 199.205 360.459 199.576 360.698 200.074C360.936 200.569 361.055 201.196 361.055 201.953V207.614H359.757V202.046C359.757 201.346 359.585 200.801 359.24 200.411C358.895 200.016 358.422 199.819 357.821 199.819C357.407 199.819 357.036 199.914 356.71 200.103C356.387 200.293 356.132 200.569 355.945 200.933C355.758 201.296 355.665 201.737 355.665 202.255Z" fill="#888888" fill-opacity="0.7"/>
<path d="M365.914 207.823C365.378 207.823 364.892 207.716 364.456 207.504C364.02 207.287 363.673 206.976 363.416 206.57C363.16 206.16 363.031 205.665 363.031 205.085C363.031 204.575 363.127 204.161 363.317 203.844C363.508 203.523 363.763 203.272 364.082 203.09C364.401 202.908 364.753 202.773 365.138 202.684C365.527 202.591 365.917 202.518 366.31 202.464C366.823 202.394 367.239 202.342 367.558 202.307C367.881 202.269 368.116 202.205 368.262 202.116C368.413 202.027 368.488 201.872 368.488 201.652V201.606C368.488 201.033 368.339 200.589 368.042 200.272C367.749 199.955 367.303 199.796 366.706 199.796C366.086 199.796 365.6 199.939 365.248 200.225C364.896 200.511 364.649 200.817 364.505 201.142L363.273 200.678C363.493 200.136 363.787 199.715 364.153 199.413C364.524 199.108 364.927 198.895 365.364 198.775C365.804 198.652 366.236 198.59 366.662 198.59C366.933 198.59 367.245 198.625 367.597 198.694C367.952 198.76 368.295 198.897 368.625 199.106C368.959 199.315 369.236 199.63 369.456 200.051C369.676 200.473 369.786 201.037 369.786 201.745V207.614H368.488V206.408H368.422C368.334 206.601 368.187 206.808 367.982 207.028C367.776 207.248 367.503 207.436 367.162 207.591C366.821 207.745 366.405 207.823 365.914 207.823ZM366.112 206.593C366.625 206.593 367.058 206.487 367.41 206.274C367.765 206.061 368.033 205.787 368.213 205.451C368.396 205.114 368.488 204.76 368.488 204.389V203.137C368.433 203.206 368.312 203.27 368.125 203.328C367.941 203.382 367.729 203.43 367.487 203.473C367.248 203.512 367.016 203.546 366.788 203.577C366.564 203.604 366.383 203.628 366.244 203.647C365.906 203.693 365.591 203.769 365.298 203.873C365.008 203.974 364.773 204.126 364.594 204.331C364.417 204.532 364.329 204.807 364.329 205.155C364.329 205.63 364.496 205.99 364.83 206.234C365.167 206.473 365.595 206.593 366.112 206.593Z" fill="#888888" fill-opacity="0.7"/>
<path d="M377.48 203.972V198.706H378.778V207.614H377.48V206.106H377.392C377.194 206.558 376.886 206.943 376.468 207.26C376.05 207.573 375.522 207.73 374.883 207.73C374.355 207.73 373.886 207.608 373.475 207.364C373.065 207.117 372.742 206.746 372.507 206.251C372.273 205.752 372.155 205.124 372.155 204.366V198.706H373.453V204.273C373.453 204.923 373.626 205.441 373.97 205.828C374.319 206.214 374.762 206.408 375.301 206.408C375.624 206.408 375.952 206.321 376.286 206.147C376.623 205.973 376.906 205.706 377.133 205.346C377.364 204.987 377.48 204.528 377.48 203.972Z" fill="#888888" fill-opacity="0.7"/>
<path d="M387.14 200.701L385.974 201.049C385.9 200.844 385.792 200.645 385.649 200.451C385.51 200.254 385.319 200.092 385.077 199.964C384.835 199.837 384.525 199.773 384.148 199.773C383.631 199.773 383.2 199.899 382.855 200.15C382.514 200.397 382.343 200.712 382.343 201.095C382.343 201.435 382.461 201.704 382.695 201.901C382.93 202.098 383.297 202.263 383.796 202.394L385.05 202.719C385.805 202.912 386.368 203.208 386.738 203.606C387.109 204.001 387.294 204.509 387.294 205.132C387.294 205.642 387.155 206.098 386.876 206.5C386.601 206.902 386.216 207.219 385.721 207.451C385.226 207.683 384.65 207.799 383.994 207.799C383.132 207.799 382.419 207.602 381.854 207.208C381.289 206.813 380.932 206.237 380.781 205.48L382.013 205.155C382.131 205.634 382.353 205.994 382.679 206.234C383.009 206.473 383.44 206.593 383.972 206.593C384.577 206.593 385.057 206.458 385.413 206.187C385.772 205.913 385.952 205.584 385.952 205.201C385.952 204.892 385.849 204.633 385.644 204.424C385.438 204.211 385.123 204.053 384.698 203.949L383.29 203.601C382.516 203.407 381.947 203.108 381.584 202.702C381.225 202.292 381.045 201.78 381.045 201.165C381.045 200.662 381.179 200.218 381.447 199.831C381.718 199.444 382.087 199.141 382.552 198.92C383.022 198.7 383.554 198.59 384.148 198.59C384.984 198.59 385.64 198.783 386.117 199.17C386.597 199.556 386.938 200.067 387.14 200.701Z" fill="#888888" fill-opacity="0.7"/>
<path d="M392.922 198.706V199.866H388.544V198.706H392.922ZM389.82 196.572H391.118V205.062C391.118 205.449 391.171 205.739 391.278 205.932C391.388 206.121 391.527 206.249 391.696 206.315C391.868 206.377 392.049 206.408 392.24 206.408C392.383 206.408 392.5 206.4 392.592 206.384C392.684 206.365 392.757 206.35 392.812 206.338L393.076 207.567C392.988 207.602 392.865 207.637 392.708 207.672C392.55 207.71 392.35 207.73 392.108 207.73C391.741 207.73 391.382 207.647 391.03 207.48C390.682 207.314 390.392 207.061 390.161 206.721C389.934 206.38 389.82 205.951 389.82 205.433V196.572Z" fill="#888888" fill-opacity="0.7"/>
<path d="M394.875 207.614V198.706H396.129V200.051H396.217C396.371 199.61 396.65 199.253 397.053 198.978C397.456 198.704 397.911 198.567 398.417 198.567C398.512 198.567 398.632 198.569 398.775 198.572C398.918 198.576 399.026 198.582 399.099 198.59V199.982C399.055 199.97 398.954 199.953 398.797 199.929C398.643 199.902 398.479 199.889 398.307 199.889C397.896 199.889 397.53 199.98 397.207 200.161C396.888 200.339 396.635 200.587 396.448 200.904C396.265 201.217 396.173 201.575 396.173 201.977V207.614H394.875Z" fill="#888888" fill-opacity="0.7"/>
<path d="M403.124 207.823C402.589 207.823 402.103 207.716 401.667 207.504C401.23 207.287 400.884 206.976 400.627 206.57C400.37 206.16 400.242 205.665 400.242 205.085C400.242 204.575 400.337 204.161 400.528 203.844C400.719 203.523 400.973 203.272 401.292 203.09C401.612 202.908 401.964 202.773 402.349 202.684C402.737 202.591 403.128 202.518 403.52 202.464C404.034 202.394 404.45 202.342 404.769 202.307C405.091 202.269 405.326 202.205 405.473 202.116C405.623 202.027 405.698 201.872 405.698 201.652V201.606C405.698 201.033 405.55 200.589 405.253 200.272C404.959 199.955 404.514 199.796 403.916 199.796C403.296 199.796 402.811 199.939 402.459 200.225C402.107 200.511 401.859 200.817 401.716 201.142L400.484 200.678C400.704 200.136 400.997 199.715 401.364 199.413C401.734 199.108 402.138 198.895 402.574 198.775C403.014 198.652 403.447 198.59 403.872 198.59C404.144 198.59 404.455 198.625 404.807 198.694C405.163 198.76 405.506 198.897 405.836 199.106C406.17 199.315 406.446 199.63 406.666 200.051C406.886 200.473 406.996 201.037 406.996 201.745V207.614H405.698V206.408H405.632C405.544 206.601 405.398 206.808 405.192 207.028C404.987 207.248 404.714 207.436 404.373 207.591C404.032 207.745 403.616 207.823 403.124 207.823ZM403.322 206.593C403.836 206.593 404.268 206.487 404.62 206.274C404.976 206.061 405.244 205.787 405.423 205.451C405.607 205.114 405.698 204.76 405.698 204.389V203.137C405.643 203.206 405.522 203.27 405.335 203.328C405.152 203.382 404.939 203.43 404.697 203.473C404.459 203.512 404.226 203.546 403.999 203.577C403.775 203.604 403.594 203.628 403.454 203.647C403.117 203.693 402.801 203.769 402.508 203.873C402.218 203.974 401.984 204.126 401.804 204.331C401.628 204.532 401.54 204.807 401.54 205.155C401.54 205.63 401.707 205.99 402.041 206.234C402.378 206.473 402.805 206.593 403.322 206.593Z" fill="#888888" fill-opacity="0.7"/>
<path d="M410.664 195.736V207.614H409.366V195.736H410.664Z" fill="#888888" fill-opacity="0.7"/>
<path d="M413.041 207.614V198.706H414.34V207.614H413.041ZM413.702 197.221C413.448 197.221 413.23 197.13 413.047 196.949C412.867 196.767 412.777 196.548 412.777 196.293C412.777 196.038 412.867 195.82 413.047 195.638C413.23 195.456 413.448 195.365 413.702 195.365C413.955 195.365 414.171 195.456 414.351 195.638C414.534 195.82 414.626 196.038 414.626 196.293C414.626 196.548 414.534 196.767 414.351 196.949C414.171 197.13 413.955 197.221 413.702 197.221Z" fill="#888888" fill-opacity="0.7"/>
<path d="M419.203 207.823C418.668 207.823 418.182 207.716 417.746 207.504C417.309 207.287 416.963 206.976 416.706 206.57C416.449 206.16 416.321 205.665 416.321 205.085C416.321 204.575 416.416 204.161 416.607 203.844C416.798 203.523 417.053 203.272 417.372 203.09C417.691 202.908 418.043 202.773 418.428 202.684C418.816 202.591 419.207 202.518 419.599 202.464C420.113 202.394 420.529 202.342 420.848 202.307C421.171 202.269 421.405 202.205 421.552 202.116C421.702 202.027 421.778 201.872 421.778 201.652V201.606C421.778 201.033 421.629 200.589 421.332 200.272C421.039 199.955 420.593 199.796 419.995 199.796C419.376 199.796 418.89 199.939 418.538 200.225C418.186 200.511 417.938 200.817 417.795 201.142L416.563 200.678C416.783 200.136 417.076 199.715 417.443 199.413C417.814 199.108 418.217 198.895 418.653 198.775C419.093 198.652 419.526 198.59 419.951 198.59C420.223 198.59 420.534 198.625 420.886 198.694C421.242 198.76 421.585 198.897 421.915 199.106C422.249 199.315 422.526 199.63 422.746 200.051C422.966 200.473 423.076 201.037 423.076 201.745V207.614H421.778V206.408H421.712C421.624 206.601 421.477 206.808 421.271 207.028C421.066 207.248 420.793 207.436 420.452 207.591C420.111 207.745 419.695 207.823 419.203 207.823ZM419.401 206.593C419.915 206.593 420.347 206.487 420.699 206.274C421.055 206.061 421.323 205.787 421.503 205.451C421.686 205.114 421.778 204.76 421.778 204.389V203.137C421.723 203.206 421.602 203.27 421.414 203.328C421.231 203.382 421.018 203.43 420.776 203.473C420.538 203.512 420.305 203.546 420.078 203.577C419.854 203.604 419.673 203.628 419.533 203.647C419.196 203.693 418.881 203.769 418.587 203.873C418.298 203.974 418.063 204.126 417.883 204.331C417.707 204.532 417.619 204.807 417.619 205.155C417.619 205.63 417.786 205.99 418.12 206.234C418.457 206.473 418.884 206.593 419.401 206.593Z" fill="#888888" fill-opacity="0.7"/>
<path d="M329.708 378.551C329.634 377.886 329.331 377.37 328.8 377.003C328.27 376.636 327.619 376.453 326.848 376.453C326.284 376.453 325.791 376.549 325.368 376.741C324.949 376.933 324.622 377.198 324.385 377.534C324.153 377.871 324.037 378.253 324.037 378.682C324.037 379.04 324.118 379.348 324.28 379.606C324.446 379.86 324.657 380.072 324.914 380.242C325.171 380.408 325.44 380.546 325.722 380.655C326.004 380.76 326.263 380.845 326.5 380.911L327.793 381.278C328.125 381.37 328.494 381.497 328.9 381.658C329.31 381.82 329.702 382.041 330.075 382.32C330.452 382.596 330.763 382.95 331.008 383.383C331.252 383.815 331.375 384.346 331.375 384.976C331.375 385.701 331.194 386.357 330.834 386.943C330.477 387.528 329.955 387.994 329.267 388.339C328.583 388.684 327.752 388.857 326.773 388.857C325.861 388.857 325.072 388.702 324.404 388.391C323.741 388.081 323.219 387.648 322.837 387.093C322.46 386.538 322.246 385.894 322.197 385.159H323.789C323.83 385.666 323.992 386.086 324.274 386.418C324.56 386.746 324.92 386.991 325.356 387.152C325.795 387.31 326.268 387.388 326.773 387.388C327.362 387.388 327.89 387.288 328.359 387.087C328.827 386.881 329.198 386.597 329.472 386.234C329.745 385.867 329.882 385.439 329.882 384.949C329.882 384.504 329.764 384.141 329.528 383.861C329.292 383.581 328.981 383.354 328.595 383.179C328.21 383.004 327.793 382.851 327.345 382.72L325.778 382.248C324.783 381.947 323.996 381.516 323.415 380.957C322.835 380.397 322.545 379.665 322.545 378.76C322.545 378.009 322.738 377.353 323.123 376.794C323.513 376.23 324.035 375.793 324.69 375.482C325.349 375.168 326.085 375.01 326.898 375.01C327.718 375.01 328.448 375.165 329.086 375.476C329.725 375.782 330.23 376.201 330.604 376.735C330.981 377.268 331.18 377.873 331.201 378.551H329.708Z" fill="#888888" fill-opacity="0.7"/>
<path d="M337.591 388.831C336.729 388.831 335.972 388.614 335.322 388.182C334.675 387.749 334.169 387.144 333.804 386.366C333.444 385.588 333.263 384.678 333.263 383.638C333.263 382.589 333.444 381.674 333.804 380.891C334.169 380.109 334.675 379.501 335.322 379.069C335.972 378.636 336.729 378.419 337.591 378.419C338.453 378.419 339.208 378.636 339.855 379.069C340.505 379.501 341.011 380.109 341.372 380.891C341.737 381.674 341.919 382.589 341.919 383.638C341.919 384.678 341.737 385.588 341.372 386.366C341.011 387.144 340.505 387.749 339.855 388.182C339.208 388.614 338.453 388.831 337.591 388.831ZM337.591 387.441C338.246 387.441 338.785 387.264 339.208 386.91C339.631 386.556 339.944 386.09 340.147 385.513C340.35 384.936 340.451 384.311 340.451 383.638C340.451 382.965 340.35 382.338 340.147 381.757C339.944 381.175 339.631 380.705 339.208 380.347C338.785 379.989 338.246 379.809 337.591 379.809C336.936 379.809 336.397 379.989 335.974 380.347C335.552 380.705 335.239 381.175 335.036 381.757C334.832 382.338 334.731 382.965 334.731 383.638C334.731 384.311 334.832 384.936 335.036 385.513C335.239 386.09 335.552 386.556 335.974 386.91C336.397 387.264 336.936 387.441 337.591 387.441Z" fill="#888888" fill-opacity="0.7"/>
<path d="M350.178 384.504V378.551H351.646V388.621H350.178V386.916H350.079C349.855 387.428 349.507 387.863 349.034 388.221C348.561 388.575 347.964 388.752 347.243 388.752C346.646 388.752 346.116 388.614 345.651 388.339C345.187 388.059 344.822 387.64 344.557 387.08C344.292 386.516 344.159 385.806 344.159 384.949V378.551H345.626V384.845C345.626 385.579 345.821 386.165 346.211 386.602C346.605 387.039 347.106 387.257 347.716 387.257C348.08 387.257 348.452 387.159 348.829 386.962C349.21 386.765 349.529 386.464 349.786 386.057C350.047 385.651 350.178 385.133 350.178 384.504Z" fill="#888888" fill-opacity="0.7"/>
<path d="M358.487 378.551V379.862H353.537V378.551H358.487ZM354.98 376.138H356.447V385.736C356.447 386.173 356.508 386.501 356.628 386.72C356.752 386.934 356.91 387.078 357.1 387.152C357.295 387.222 357.5 387.257 357.716 387.257C357.878 387.257 358.01 387.248 358.114 387.231C358.218 387.209 358.3 387.192 358.363 387.179L358.661 388.568C358.562 388.608 358.423 388.647 358.244 388.686C358.066 388.73 357.84 388.752 357.567 388.752C357.152 388.752 356.746 388.658 356.348 388.47C355.954 388.282 355.627 387.996 355.365 387.611C355.108 387.227 354.98 386.741 354.98 386.156V376.138Z" fill="#888888" fill-opacity="0.7"/>
<path d="M362.367 382.563V388.621H360.9V375.194H362.367V380.124H362.491C362.715 379.604 363.051 379.191 363.499 378.885C363.951 378.575 364.552 378.419 365.302 378.419C365.953 378.419 366.523 378.557 367.012 378.833C367.501 379.104 367.88 379.521 368.15 380.085C368.423 380.644 368.56 381.357 368.56 382.222V388.621H367.093V382.327C367.093 381.527 366.896 380.909 366.502 380.472C366.112 380.03 365.571 379.809 364.879 379.809C364.398 379.809 363.967 379.916 363.586 380.131C363.209 380.345 362.91 380.657 362.69 381.068C362.475 381.479 362.367 381.977 362.367 382.563Z" fill="#888888" fill-opacity="0.7"/>
<path d="M376.891 388.621H375.274L379.95 375.194H381.542L386.218 388.621H384.601L380.796 377.318H380.696L376.891 388.621ZM377.488 383.376H384.004V384.818H377.488V383.376Z" fill="#888888" fill-opacity="0.7"/>
<path d="M394.022 384.504V378.551H395.489V388.621H394.022V386.916H393.922C393.698 387.428 393.35 387.863 392.878 388.221C392.405 388.575 391.808 388.752 391.087 388.752C390.49 388.752 389.959 388.614 389.495 388.339C389.031 388.059 388.666 387.64 388.401 387.08C388.135 386.516 388.003 385.806 388.003 384.949V378.551H389.47V384.845C389.47 385.579 389.665 386.165 390.055 386.602C390.448 387.039 390.95 387.257 391.559 387.257C391.924 387.257 392.295 387.159 392.672 386.962C393.054 386.765 393.373 386.464 393.63 386.057C393.891 385.651 394.022 385.133 394.022 384.504Z" fill="#888888" fill-opacity="0.7"/>
<path d="M404.942 380.806L403.624 381.199C403.541 380.968 403.419 380.743 403.257 380.524C403.1 380.301 402.884 380.118 402.61 379.973C402.337 379.829 401.987 379.757 401.56 379.757C400.975 379.757 400.488 379.899 400.098 380.183C399.713 380.463 399.52 380.819 399.52 381.252C399.52 381.636 399.653 381.94 399.918 382.163C400.183 382.386 400.598 382.572 401.162 382.72L402.579 383.087C403.433 383.306 404.07 383.64 404.488 384.091C404.907 384.536 405.116 385.111 405.116 385.815C405.116 386.392 404.959 386.908 404.644 387.362C404.333 387.817 403.898 388.175 403.338 388.437C402.778 388.7 402.127 388.831 401.385 388.831C400.411 388.831 399.605 388.608 398.967 388.162C398.328 387.716 397.924 387.065 397.754 386.208L399.147 385.841C399.28 386.383 399.53 386.79 399.899 387.061C400.272 387.332 400.759 387.467 401.361 387.467C402.045 387.467 402.588 387.314 402.99 387.008C403.396 386.698 403.599 386.326 403.599 385.894C403.599 385.544 403.483 385.251 403.251 385.015C403.019 384.775 402.662 384.595 402.181 384.477L400.59 384.084C399.715 383.865 399.072 383.527 398.662 383.068C398.256 382.605 398.053 382.025 398.053 381.33C398.053 380.762 398.204 380.26 398.507 379.823C398.813 379.385 399.23 379.042 399.756 378.793C400.287 378.544 400.888 378.419 401.56 378.419C402.505 378.419 403.247 378.638 403.786 379.075C404.329 379.512 404.714 380.089 404.942 380.806Z" fill="#888888" fill-opacity="0.7"/>
<path d="M411.479 378.551V379.862H406.529V378.551H411.479ZM407.972 376.138H409.439V385.736C409.439 386.173 409.5 386.501 409.62 386.72C409.744 386.934 409.902 387.078 410.092 387.152C410.287 387.222 410.492 387.257 410.708 387.257C410.87 387.257 411.002 387.248 411.106 387.231C411.21 387.209 411.292 387.192 411.355 387.179L411.653 388.568C411.554 388.608 411.415 388.647 411.236 388.686C411.058 388.73 410.832 388.752 410.559 388.752C410.144 388.752 409.738 388.658 409.34 388.47C408.946 388.282 408.619 387.996 408.357 387.611C408.1 387.227 407.972 386.741 407.972 386.156V376.138Z" fill="#888888" fill-opacity="0.7"/>
<path d="M413.686 388.621V378.551H415.104V380.072H415.204C415.378 379.573 415.693 379.169 416.149 378.859C416.605 378.548 417.119 378.393 417.691 378.393C417.799 378.393 417.933 378.395 418.095 378.4C418.257 378.404 418.379 378.411 418.462 378.419V379.993C418.412 379.98 418.298 379.96 418.12 379.934C417.946 379.903 417.761 379.888 417.566 379.888C417.102 379.888 416.688 379.991 416.323 380.196C415.962 380.397 415.676 380.677 415.465 381.035C415.257 381.389 415.154 381.794 415.154 382.248V388.621H413.686Z" fill="#888888" fill-opacity="0.7"/>
<path d="M423.012 388.857C422.407 388.857 421.857 388.737 421.364 388.496C420.871 388.252 420.479 387.9 420.189 387.441C419.899 386.977 419.754 386.418 419.754 385.762C419.754 385.185 419.861 384.718 420.077 384.359C420.293 383.997 420.581 383.712 420.941 383.507C421.302 383.302 421.7 383.149 422.135 383.048C422.575 382.943 423.016 382.86 423.46 382.799C424.04 382.72 424.51 382.661 424.871 382.622C425.236 382.578 425.501 382.506 425.667 382.406C425.837 382.305 425.922 382.13 425.922 381.881V381.829C425.922 381.182 425.754 380.679 425.418 380.321C425.087 379.962 424.583 379.783 423.907 379.783C423.207 379.783 422.657 379.945 422.26 380.268C421.862 380.592 421.582 380.937 421.42 381.304L420.027 380.78C420.276 380.168 420.608 379.691 421.022 379.35C421.441 379.005 421.897 378.765 422.39 378.629C422.888 378.489 423.377 378.419 423.858 378.419C424.164 378.419 424.517 378.459 424.915 378.537C425.317 378.612 425.704 378.767 426.077 379.003C426.455 379.239 426.768 379.595 427.016 380.072C427.265 380.548 427.389 381.186 427.389 381.986V388.621H425.922V387.257H425.847C425.748 387.476 425.582 387.71 425.35 387.959C425.118 388.208 424.809 388.42 424.423 388.595C424.038 388.769 423.567 388.857 423.012 388.857ZM423.236 387.467C423.816 387.467 424.305 387.347 424.703 387.106C425.105 386.866 425.408 386.556 425.611 386.175C425.818 385.795 425.922 385.395 425.922 384.976V383.56C425.86 383.638 425.723 383.71 425.512 383.776C425.304 383.837 425.064 383.892 424.79 383.94C424.521 383.983 424.258 384.023 424.001 384.058C423.748 384.088 423.543 384.115 423.385 384.136C423.004 384.189 422.647 384.274 422.315 384.392C421.988 384.506 421.723 384.678 421.52 384.91C421.321 385.137 421.221 385.448 421.221 385.841C421.221 386.379 421.41 386.785 421.787 387.061C422.168 387.332 422.651 387.467 423.236 387.467Z" fill="#888888" fill-opacity="0.7"/>
<path d="M431.535 375.194V388.621H430.068V375.194H431.535Z" fill="#888888" fill-opacity="0.7"/>
<path d="M434.223 388.621V378.551H435.691V388.621H434.223ZM434.969 376.872C434.683 376.872 434.437 376.77 434.229 376.564C434.026 376.359 433.925 376.112 433.925 375.823C433.925 375.535 434.026 375.288 434.229 375.082C434.437 374.877 434.683 374.774 434.969 374.774C435.255 374.774 435.5 374.877 435.703 375.082C435.91 375.288 436.014 375.535 436.014 375.823C436.014 376.112 435.91 376.359 435.703 376.564C435.5 376.77 435.255 376.872 434.969 376.872Z" fill="#888888" fill-opacity="0.7"/>
<path d="M441.189 388.857C440.584 388.857 440.034 388.737 439.541 388.496C439.048 388.252 438.656 387.9 438.366 387.441C438.076 386.977 437.931 386.418 437.931 385.762C437.931 385.185 438.038 384.718 438.254 384.359C438.469 383.997 438.758 383.712 439.118 383.507C439.479 383.302 439.877 383.149 440.312 383.048C440.752 382.943 441.193 382.86 441.637 382.799C442.217 382.72 442.687 382.661 443.048 382.622C443.413 382.578 443.678 382.506 443.844 382.406C444.014 382.305 444.099 382.13 444.099 381.881V381.829C444.099 381.182 443.931 380.679 443.595 380.321C443.264 379.962 442.76 379.783 442.084 379.783C441.384 379.783 440.834 379.945 440.436 380.268C440.039 380.592 439.759 380.937 439.597 381.304L438.204 380.78C438.453 380.168 438.785 379.691 439.199 379.35C439.618 379.005 440.074 378.765 440.567 378.629C441.065 378.489 441.554 378.419 442.035 378.419C442.341 378.419 442.694 378.459 443.092 378.537C443.494 378.612 443.881 378.767 444.254 379.003C444.632 379.239 444.945 379.595 445.193 380.072C445.442 380.548 445.566 381.186 445.566 381.986V388.621H444.099V387.257H444.024C443.925 387.476 443.759 387.71 443.527 387.959C443.295 388.208 442.986 388.42 442.6 388.595C442.215 388.769 441.744 388.857 441.189 388.857ZM441.413 387.467C441.993 387.467 442.482 387.347 442.88 387.106C443.282 386.866 443.585 386.556 443.788 386.175C443.995 385.795 444.099 385.395 444.099 384.976V383.56C444.037 383.638 443.9 383.71 443.689 383.776C443.481 383.837 443.241 383.892 442.967 383.94C442.698 383.983 442.435 384.023 442.178 384.058C441.925 384.088 441.72 384.115 441.562 384.136C441.181 384.189 440.824 384.274 440.492 384.392C440.165 384.506 439.9 384.678 439.697 384.91C439.498 385.137 439.398 385.448 439.398 385.841C439.398 386.379 439.587 386.785 439.964 387.061C440.345 387.332 440.828 387.467 441.413 387.467Z" fill="#888888" fill-opacity="0.7"/>
<path d="M502.915 257.856H504.606L506.024 259.823L506.397 260.347L508.511 263.311H506.82L505.427 261.344L505.079 260.846L502.915 257.856ZM509.034 255.339C509.034 256.755 508.791 257.978 508.306 259.01C507.821 260.041 507.156 260.837 506.31 261.396C505.465 261.956 504.499 262.236 503.413 262.236C502.326 262.236 501.361 261.956 500.515 261.396C499.669 260.837 499.004 260.041 498.519 259.01C498.034 257.978 497.791 256.755 497.791 255.339C497.791 253.922 498.034 252.699 498.519 251.667C499.004 250.636 499.669 249.84 500.515 249.281C501.361 248.721 502.326 248.441 503.413 248.441C504.499 248.441 505.465 248.721 506.31 249.281C507.156 249.84 507.821 250.636 508.306 251.667C508.791 252.699 509.034 253.922 509.034 255.339ZM507.541 255.339C507.541 254.176 507.357 253.195 506.988 252.395C506.623 251.595 506.128 250.99 505.502 250.579C504.88 250.168 504.184 249.962 503.413 249.962C502.642 249.962 501.943 250.168 501.317 250.579C500.695 250.99 500.2 251.595 499.831 252.395C499.466 253.195 499.284 254.176 499.284 255.339C499.284 256.501 499.466 257.482 499.831 258.282C500.2 259.082 500.695 259.687 501.317 260.098C501.943 260.509 502.642 260.715 503.413 260.715C504.184 260.715 504.88 260.509 505.502 260.098C506.128 259.687 506.623 259.082 506.988 258.282C507.357 257.482 507.541 256.501 507.541 255.339Z" fill="#888888" fill-opacity="0.7"/>
<path d="M517.447 257.935V251.982H518.914V262.052H517.447V260.347H517.347C517.123 260.859 516.775 261.294 516.303 261.652C515.83 262.006 515.233 262.183 514.512 262.183C513.915 262.183 513.384 262.045 512.92 261.77C512.456 261.49 512.091 261.071 511.826 260.511C511.56 259.948 511.428 259.237 511.428 258.381V251.982H512.895V258.276C512.895 259.01 513.09 259.596 513.48 260.033C513.873 260.47 514.375 260.688 514.984 260.688C515.349 260.688 515.72 260.59 516.097 260.393C516.479 260.197 516.798 259.895 517.055 259.489C517.316 259.082 517.447 258.564 517.447 257.935Z" fill="#888888" fill-opacity="0.7"/>
<path d="M525.606 262.262C524.686 262.262 523.892 262.048 523.225 261.619C522.562 261.187 522.05 260.583 521.689 259.81C521.333 259.032 521.154 258.127 521.154 257.096C521.154 256.064 521.333 255.155 521.689 254.368C522.05 253.577 522.551 252.961 523.194 252.519C523.84 252.074 524.595 251.851 525.457 251.851C525.955 251.851 526.446 251.938 526.931 252.113C527.416 252.288 527.857 252.572 528.255 252.965C528.653 253.354 528.97 253.87 529.207 254.512C529.443 255.155 529.561 255.946 529.561 256.886V257.541H522.199V256.204H528.069C528.069 255.636 527.961 255.129 527.745 254.683C527.534 254.237 527.231 253.885 526.838 253.627C526.448 253.369 525.988 253.241 525.457 253.241C524.873 253.241 524.367 253.394 523.94 253.699C523.517 254.001 523.192 254.394 522.964 254.88C522.736 255.365 522.622 255.885 522.622 256.44V257.332C522.622 258.092 522.746 258.737 522.995 259.266C523.248 259.79 523.598 260.19 524.046 260.465C524.493 260.736 525.014 260.872 525.606 260.872C525.992 260.872 526.34 260.815 526.651 260.701C526.966 260.583 527.238 260.409 527.466 260.177C527.694 259.941 527.87 259.648 527.994 259.298L529.412 259.718C529.263 260.225 529.012 260.671 528.66 261.056C528.307 261.436 527.872 261.733 527.354 261.947C526.836 262.157 526.253 262.262 525.606 262.262Z" fill="#888888" fill-opacity="0.7"/>
<path d="M535.798 262.262C534.878 262.262 534.084 262.048 533.416 261.619C532.753 261.187 532.241 260.583 531.88 259.81C531.524 259.032 531.346 258.127 531.346 257.096C531.346 256.064 531.524 255.155 531.88 254.368C532.241 253.577 532.743 252.961 533.385 252.519C534.032 252.074 534.786 251.851 535.649 251.851C536.146 251.851 536.637 251.938 537.122 252.113C537.607 252.288 538.049 252.572 538.447 252.965C538.845 253.354 539.162 253.87 539.398 254.512C539.634 255.155 539.753 255.946 539.753 256.886V257.541H532.39V256.204H538.26C538.26 255.636 538.152 255.129 537.937 254.683C537.725 254.237 537.423 253.885 537.029 253.627C536.639 253.369 536.179 253.241 535.649 253.241C535.064 253.241 534.558 253.394 534.131 253.699C533.709 254.001 533.383 254.394 533.155 254.88C532.927 255.365 532.813 255.885 532.813 256.44V257.332C532.813 258.092 532.938 258.737 533.186 259.266C533.439 259.79 533.789 260.19 534.237 260.465C534.685 260.736 535.205 260.872 535.798 260.872C536.183 260.872 536.532 260.815 536.842 260.701C537.158 260.583 537.429 260.409 537.657 260.177C537.885 259.941 538.061 259.648 538.186 259.298L539.603 259.718C539.454 260.225 539.203 260.671 538.851 261.056C538.499 261.436 538.063 261.733 537.545 261.947C537.027 262.157 536.445 262.262 535.798 262.262Z" fill="#888888" fill-opacity="0.7"/>
<path d="M543.452 255.994V262.052H541.985V251.982H543.403V253.555H543.527C543.751 253.044 544.091 252.633 544.547 252.323C545.003 252.008 545.591 251.851 546.313 251.851C546.959 251.851 547.525 251.991 548.01 252.27C548.495 252.546 548.872 252.965 549.142 253.529C549.411 254.088 549.546 254.797 549.546 255.653V262.052H548.079V255.758C548.079 254.967 547.884 254.351 547.494 253.909C547.104 253.463 546.57 253.241 545.89 253.241C545.421 253.241 545.003 253.348 544.634 253.562C544.269 253.776 543.981 254.088 543.769 254.499C543.558 254.91 543.452 255.408 543.452 255.994Z" fill="#888888" fill-opacity="0.7"/>
<path d="M558.993 254.237L557.675 254.63C557.592 254.399 557.469 254.174 557.308 253.955C557.15 253.732 556.935 253.549 556.661 253.404C556.387 253.26 556.037 253.188 555.61 253.188C555.026 253.188 554.539 253.33 554.149 253.614C553.763 253.894 553.571 254.25 553.571 254.683C553.571 255.068 553.703 255.371 553.969 255.594C554.234 255.817 554.648 256.003 555.212 256.151L556.63 256.519C557.484 256.737 558.12 257.072 558.539 257.522C558.958 257.968 559.167 258.542 559.167 259.246C559.167 259.823 559.009 260.339 558.694 260.793C558.383 261.248 557.948 261.606 557.389 261.868C556.829 262.131 556.178 262.262 555.436 262.262C554.462 262.262 553.656 262.039 553.017 261.593C552.379 261.147 551.975 260.496 551.805 259.639L553.198 259.272C553.33 259.814 553.581 260.221 553.95 260.492C554.323 260.763 554.81 260.898 555.411 260.898C556.095 260.898 556.638 260.745 557.04 260.439C557.447 260.129 557.65 259.757 557.65 259.325C557.65 258.975 557.534 258.682 557.302 258.446C557.069 258.206 556.713 258.027 556.232 257.909L554.64 257.515C553.765 257.297 553.123 256.958 552.713 256.499C552.306 256.036 552.103 255.457 552.103 254.762C552.103 254.193 552.254 253.691 552.557 253.254C552.864 252.817 553.28 252.473 553.807 252.224C554.338 251.975 554.939 251.851 555.61 251.851C556.555 251.851 557.297 252.069 557.836 252.506C558.379 252.943 558.765 253.52 558.993 254.237Z" fill="#888888" fill-opacity="0.7"/>
<path d="M562.843 248.625V262.052H561.376V248.625H562.843Z" fill="#888888" fill-opacity="0.7"/>
<path d="M568.342 262.288C567.736 262.288 567.187 262.168 566.694 261.927C566.201 261.683 565.809 261.331 565.519 260.872C565.229 260.409 565.083 259.849 565.083 259.194C565.083 258.617 565.191 258.149 565.407 257.791C565.622 257.428 565.91 257.144 566.271 256.938C566.632 256.733 567.03 256.58 567.465 256.479C567.904 256.374 568.346 256.291 568.789 256.23C569.37 256.151 569.84 256.092 570.201 256.053C570.566 256.009 570.831 255.937 570.997 255.837C571.167 255.736 571.252 255.561 571.252 255.312V255.26C571.252 254.613 571.084 254.11 570.748 253.752C570.416 253.394 569.913 253.214 569.237 253.214C568.537 253.214 567.987 253.376 567.589 253.699C567.191 254.023 566.912 254.368 566.75 254.735L565.357 254.211C565.606 253.599 565.937 253.123 566.352 252.782C566.771 252.436 567.227 252.196 567.72 252.06C568.217 251.921 568.706 251.851 569.187 251.851C569.494 251.851 569.846 251.89 570.244 251.969C570.646 252.043 571.034 252.198 571.407 252.434C571.784 252.67 572.097 253.026 572.346 253.503C572.595 253.979 572.719 254.617 572.719 255.417V262.052H571.252V260.688H571.177C571.078 260.907 570.912 261.141 570.68 261.39C570.448 261.639 570.139 261.851 569.753 262.026C569.368 262.201 568.897 262.288 568.342 262.288ZM568.566 260.898C569.146 260.898 569.635 260.778 570.033 260.538C570.435 260.297 570.738 259.987 570.941 259.607C571.148 259.226 571.252 258.826 571.252 258.407V256.991C571.19 257.069 571.053 257.141 570.841 257.207C570.634 257.268 570.394 257.323 570.12 257.371C569.851 257.415 569.587 257.454 569.33 257.489C569.077 257.52 568.872 257.546 568.715 257.568C568.333 257.62 567.977 257.705 567.645 257.823C567.318 257.937 567.052 258.11 566.849 258.341C566.65 258.569 566.551 258.879 566.551 259.272C566.551 259.81 566.739 260.216 567.117 260.492C567.498 260.763 567.981 260.898 568.566 260.898Z" fill="#888888" fill-opacity="0.7"/>
<path d="M576.865 255.994V262.052H575.398V251.982H576.815V253.555H576.94C577.164 253.044 577.503 252.633 577.959 252.323C578.415 252.008 579.004 251.851 579.725 251.851C580.372 251.851 580.938 251.991 581.423 252.27C581.908 252.546 582.285 252.965 582.555 253.529C582.824 254.088 582.959 254.797 582.959 255.653V262.052H581.491V255.758C581.491 254.967 581.297 254.351 580.907 253.909C580.517 253.463 579.982 253.241 579.303 253.241C578.834 253.241 578.415 253.348 578.047 253.562C577.682 253.776 577.394 254.088 577.182 254.499C576.971 254.91 576.865 255.408 576.865 255.994Z" fill="#888888" fill-opacity="0.7"/>
<path d="M589.247 262.262C588.451 262.262 587.748 262.05 587.139 261.626C586.53 261.198 586.053 260.594 585.709 259.816C585.365 259.034 585.193 258.11 585.193 257.043C585.193 255.985 585.365 255.068 585.709 254.29C586.053 253.512 586.532 252.911 587.145 252.487C587.759 252.063 588.468 251.851 589.272 251.851C589.894 251.851 590.385 251.96 590.745 252.178C591.11 252.393 591.388 252.637 591.579 252.913C591.773 253.184 591.925 253.407 592.033 253.581H592.157V248.625H593.624V262.052H592.207V260.505H592.033C591.925 260.688 591.771 260.92 591.572 261.2C591.373 261.475 591.089 261.722 590.721 261.941C590.352 262.155 589.86 262.262 589.247 262.262ZM589.446 260.872C590.035 260.872 590.532 260.71 590.938 260.387C591.344 260.059 591.653 259.607 591.865 259.03C592.076 258.448 592.182 257.777 592.182 257.017C592.182 256.265 592.078 255.607 591.871 255.043C591.664 254.475 591.357 254.034 590.951 253.719C590.544 253.4 590.043 253.241 589.446 253.241C588.824 253.241 588.306 253.409 587.891 253.745C587.481 254.078 587.172 254.53 586.965 255.103C586.762 255.671 586.66 256.309 586.66 257.017C586.66 257.734 586.764 258.385 586.971 258.971C587.182 259.552 587.493 260.015 587.904 260.361C588.318 260.701 588.832 260.872 589.446 260.872Z" fill="#888888" fill-opacity="0.7"/>
<path d="M547.11 361.584V375.011H545.618L538.678 364.469H538.554V375.011H537.012V361.584H538.504L545.469 372.153H545.593V361.584H547.11Z" fill="#888888" fill-opacity="0.7"/>
<path d="M554.001 375.221C553.081 375.221 552.287 375.007 551.62 374.579C550.957 374.146 550.445 373.543 550.084 372.769C549.727 371.991 549.549 371.086 549.549 370.055C549.549 369.023 549.727 368.114 550.084 367.328C550.445 366.536 550.946 365.92 551.589 365.479C552.235 365.033 552.99 364.81 553.852 364.81C554.35 364.81 554.841 364.897 555.326 365.072C555.811 365.247 556.252 365.531 556.65 365.924C557.048 366.313 557.365 366.829 557.602 367.472C557.838 368.114 557.956 368.905 557.956 369.845V370.501H550.594V369.163H556.464C556.464 368.595 556.356 368.088 556.14 367.642C555.929 367.196 555.626 366.845 555.233 366.587C554.843 366.329 554.383 366.2 553.852 366.2C553.268 366.2 552.762 366.353 552.335 366.659C551.912 366.96 551.587 367.354 551.359 367.839C551.131 368.324 551.017 368.844 551.017 369.399V370.291C551.017 371.051 551.141 371.696 551.39 372.225C551.643 372.749 551.993 373.149 552.441 373.425C552.888 373.696 553.409 373.831 554.001 373.831C554.387 373.831 554.735 373.774 555.046 373.661C555.361 373.543 555.633 373.368 555.861 373.136C556.089 372.9 556.265 372.607 556.389 372.258L557.807 372.677C557.658 373.184 557.407 373.63 557.054 374.015C556.702 374.395 556.267 374.692 555.749 374.906C555.23 375.116 554.648 375.221 554.001 375.221Z" fill="#888888" fill-opacity="0.7"/>
<path d="M562.352 375.011L559.442 364.941H560.984L563.049 372.651H563.148L565.188 364.941H566.755L568.769 372.625H568.869L570.933 364.941H572.475L569.565 375.011H568.123L566.033 367.275H565.884L563.795 375.011H562.352Z" fill="#888888" fill-opacity="0.7"/>
<path d="M586.503 364.941C586.429 364.277 586.126 363.761 585.595 363.394C585.065 363.027 584.414 362.843 583.643 362.843C583.079 362.843 582.586 362.939 582.163 363.132C581.744 363.324 581.417 363.588 581.181 363.925C580.948 364.261 580.832 364.644 580.832 365.072C580.832 365.431 580.913 365.739 581.075 365.997C581.241 366.25 581.452 366.462 581.709 366.633C581.966 366.799 582.236 366.936 582.517 367.046C582.799 367.15 583.058 367.236 583.295 367.301L584.588 367.668C584.92 367.76 585.289 367.887 585.695 368.049C586.105 368.21 586.497 368.431 586.87 368.711C587.247 368.986 587.558 369.34 587.803 369.773C588.047 370.206 588.17 370.737 588.17 371.366C588.17 372.092 587.989 372.747 587.629 373.333C587.272 373.919 586.75 374.384 586.062 374.729C585.378 375.075 584.547 375.247 583.568 375.247C582.656 375.247 581.867 375.092 581.199 374.782C580.536 374.472 580.014 374.039 579.632 373.484C579.255 372.929 579.042 372.284 578.992 371.55H580.584C580.625 372.057 580.787 372.476 581.069 372.808C581.355 373.136 581.715 373.381 582.151 373.543C582.59 373.7 583.063 373.779 583.568 373.779C584.157 373.779 584.685 373.678 585.154 373.477C585.622 373.272 585.993 372.988 586.267 372.625C586.541 372.258 586.677 371.829 586.677 371.34C586.677 370.894 586.559 370.531 586.323 370.252C586.087 369.972 585.776 369.745 585.39 369.57C585.005 369.395 584.588 369.242 584.14 369.111L582.573 368.639C581.579 368.337 580.791 367.907 580.211 367.347C579.63 366.788 579.34 366.056 579.34 365.151C579.34 364.399 579.533 363.743 579.918 363.184C580.308 362.62 580.83 362.183 581.485 361.873C582.144 361.558 582.88 361.401 583.693 361.401C584.513 361.401 585.243 361.556 585.881 361.866C586.52 362.172 587.026 362.592 587.399 363.125C587.776 363.658 587.975 364.264 587.996 364.941H586.503Z" fill="#888888" fill-opacity="0.7"/>
<path d="M594.386 375.221C593.524 375.221 592.767 375.005 592.117 374.572C591.47 374.139 590.964 373.534 590.599 372.756C590.239 371.978 590.058 371.069 590.058 370.029C590.058 368.98 590.239 368.064 590.599 367.282C590.964 366.499 591.47 365.892 592.117 365.459C592.767 365.026 593.524 364.81 594.386 364.81C595.248 364.81 596.003 365.026 596.65 365.459C597.3 365.892 597.806 366.499 598.167 367.282C598.532 368.064 598.714 368.98 598.714 370.029C598.714 371.069 598.532 371.978 598.167 372.756C597.806 373.534 597.3 374.139 596.65 374.572C596.003 375.005 595.248 375.221 594.386 375.221ZM594.386 373.831C595.041 373.831 595.58 373.654 596.003 373.3C596.426 372.946 596.739 372.481 596.942 371.904C597.145 371.327 597.246 370.702 597.246 370.029C597.246 369.356 597.145 368.728 596.942 368.147C596.739 367.566 596.426 367.096 596.003 366.737C595.58 366.379 595.041 366.2 594.386 366.2C593.731 366.2 593.192 366.379 592.769 366.737C592.347 367.096 592.034 367.566 591.831 368.147C591.627 368.728 591.526 369.356 591.526 370.029C591.526 370.702 591.627 371.327 591.831 371.904C592.034 372.481 592.347 372.946 592.769 373.3C593.192 373.654 593.731 373.831 594.386 373.831Z" fill="#888888" fill-opacity="0.7"/>
<path d="M606.973 370.894V364.941H608.441V375.011H606.973V373.307H606.874C606.65 373.818 606.302 374.253 605.829 374.611C605.356 374.965 604.76 375.142 604.038 375.142C603.441 375.142 602.911 375.005 602.446 374.729C601.982 374.45 601.617 374.03 601.352 373.471C601.087 372.907 600.954 372.197 600.954 371.34V364.941H602.421V371.235C602.421 371.969 602.616 372.555 603.006 372.992C603.4 373.429 603.901 373.648 604.511 373.648C604.876 373.648 605.247 373.549 605.624 373.353C606.005 373.156 606.324 372.854 606.581 372.448C606.843 372.041 606.973 371.523 606.973 370.894Z" fill="#888888" fill-opacity="0.7"/>
<path d="M615.282 364.941V366.252H610.332V364.941H615.282ZM611.775 362.528H613.242V372.127C613.242 372.564 613.303 372.892 613.423 373.11C613.547 373.324 613.705 373.468 613.895 373.543C614.09 373.613 614.295 373.648 614.511 373.648C614.673 373.648 614.805 373.639 614.909 373.621C615.013 373.6 615.095 373.582 615.158 373.569L615.456 374.959C615.357 374.998 615.218 375.038 615.04 375.077C614.861 375.121 614.635 375.142 614.362 375.142C613.947 375.142 613.541 375.048 613.143 374.861C612.749 374.673 612.422 374.386 612.161 374.002C611.904 373.617 611.775 373.132 611.775 372.546V362.528Z" fill="#888888" fill-opacity="0.7"/>
<path d="M619.162 368.953V375.011H617.695V361.584H619.162V366.515H619.286C619.51 365.994 619.846 365.581 620.294 365.275C620.746 364.965 621.347 364.81 622.097 364.81C622.748 364.81 623.318 364.948 623.807 365.223C624.296 365.494 624.675 365.911 624.945 366.475C625.219 367.035 625.355 367.747 625.355 368.613V375.011H623.888V368.717C623.888 367.918 623.691 367.299 623.297 366.862C622.907 366.421 622.367 366.2 621.674 366.2C621.193 366.2 620.762 366.307 620.381 366.521C620.004 366.735 619.705 367.048 619.485 367.459C619.27 367.869 619.162 368.368 619.162 368.953Z" fill="#888888" fill-opacity="0.7"/>
<path d="M630.204 375.011L627.294 364.941H628.836L630.9 372.651H631L633.039 364.941H634.606L636.621 372.625H636.72L638.785 364.941H640.327L637.417 375.011H635.974L633.885 367.275H633.736L631.646 375.011H630.204Z" fill="#888888" fill-opacity="0.7"/>
<path d="M645.078 375.247C644.472 375.247 643.923 375.127 643.43 374.887C642.936 374.642 642.545 374.29 642.254 373.831C641.964 373.368 641.819 372.808 641.819 372.153C641.819 371.576 641.927 371.108 642.143 370.75C642.358 370.387 642.646 370.103 643.007 369.898C643.367 369.692 643.765 369.539 644.201 369.439C644.64 369.334 645.082 369.251 645.525 369.189C646.105 369.111 646.576 369.052 646.937 369.012C647.301 368.969 647.567 368.897 647.733 368.796C647.903 368.696 647.987 368.521 647.987 368.272V368.219C647.987 367.572 647.82 367.07 647.484 366.711C647.152 366.353 646.649 366.174 645.973 366.174C645.272 366.174 644.723 366.335 644.325 366.659C643.927 366.982 643.647 367.328 643.486 367.695L642.093 367.17C642.342 366.558 642.673 366.082 643.088 365.741C643.506 365.396 643.962 365.155 644.456 365.02C644.953 364.88 645.442 364.81 645.923 364.81C646.23 364.81 646.582 364.849 646.98 364.928C647.382 365.002 647.77 365.157 648.143 365.393C648.52 365.629 648.833 365.986 649.082 366.462C649.331 366.939 649.455 367.577 649.455 368.376V375.011H647.987V373.648H647.913C647.813 373.866 647.648 374.1 647.415 374.349C647.183 374.598 646.874 374.81 646.489 374.985C646.103 375.16 645.633 375.247 645.078 375.247ZM645.301 373.857C645.882 373.857 646.371 373.737 646.769 373.497C647.171 373.256 647.474 372.946 647.677 372.566C647.884 372.186 647.987 371.786 647.987 371.366V369.95C647.925 370.029 647.789 370.101 647.577 370.166C647.37 370.228 647.129 370.282 646.856 370.33C646.586 370.374 646.323 370.413 646.066 370.448C645.813 370.479 645.608 370.505 645.451 370.527C645.069 370.579 644.713 370.665 644.381 370.783C644.054 370.896 643.788 371.069 643.585 371.301C643.386 371.528 643.287 371.838 643.287 372.232C643.287 372.769 643.475 373.176 643.852 373.451C644.234 373.722 644.717 373.857 645.301 373.857Z" fill="#888888" fill-opacity="0.7"/>
<path d="M653.601 361.584V375.011H652.133V361.584H653.601Z" fill="#888888" fill-opacity="0.7"/>
<path d="M660.293 375.221C659.373 375.221 658.579 375.007 657.912 374.579C657.248 374.146 656.736 373.543 656.376 372.769C656.019 371.991 655.841 371.086 655.841 370.055C655.841 369.023 656.019 368.114 656.376 367.328C656.736 366.536 657.238 365.92 657.88 365.479C658.527 365.033 659.282 364.81 660.144 364.81C660.641 364.81 661.133 364.897 661.618 365.072C662.103 365.247 662.544 365.531 662.942 365.924C663.34 366.313 663.657 366.829 663.893 367.472C664.13 368.114 664.248 368.905 664.248 369.845V370.501H656.886V369.163H662.755C662.755 368.595 662.648 368.088 662.432 367.642C662.221 367.196 661.918 366.845 661.524 366.587C661.135 366.329 660.674 366.2 660.144 366.2C659.559 366.2 659.054 366.353 658.627 366.659C658.204 366.96 657.878 367.354 657.65 367.839C657.422 368.324 657.308 368.844 657.308 369.399V370.291C657.308 371.051 657.433 371.696 657.682 372.225C657.934 372.749 658.285 373.149 658.732 373.425C659.18 373.696 659.7 373.831 660.293 373.831C660.679 373.831 661.027 373.774 661.338 373.661C661.653 373.543 661.924 373.368 662.152 373.136C662.38 372.9 662.556 372.607 662.681 372.258L664.099 372.677C663.949 373.184 663.699 373.63 663.346 374.015C662.994 374.395 662.559 374.692 662.04 374.906C661.522 375.116 660.94 375.221 660.293 375.221Z" fill="#888888" fill-opacity="0.7"/>
<path d="M673.245 367.196L671.927 367.59C671.844 367.358 671.722 367.133 671.56 366.914C671.403 366.692 671.187 366.508 670.914 366.364C670.64 366.22 670.29 366.147 669.863 366.147C669.278 366.147 668.791 366.289 668.401 366.574C668.016 366.853 667.823 367.209 667.823 367.642C667.823 368.027 667.956 368.331 668.221 368.554C668.486 368.776 668.901 368.962 669.465 369.111L670.883 369.478C671.736 369.696 672.373 370.031 672.791 370.481C673.21 370.927 673.419 371.502 673.419 372.205C673.419 372.782 673.262 373.298 672.947 373.753C672.636 374.207 672.201 374.566 671.641 374.828C671.081 375.09 670.431 375.221 669.689 375.221C668.714 375.221 667.908 374.998 667.27 374.552C666.631 374.107 666.227 373.455 666.057 372.599L667.45 372.232C667.583 372.773 667.834 373.18 668.203 373.451C668.576 373.722 669.063 373.857 669.664 373.857C670.348 373.857 670.891 373.704 671.293 373.399C671.699 373.088 671.902 372.717 671.902 372.284C671.902 371.934 671.786 371.641 671.554 371.405C671.322 371.165 670.965 370.986 670.484 370.868L668.893 370.474C668.018 370.256 667.375 369.917 666.965 369.458C666.559 368.995 666.356 368.416 666.356 367.721C666.356 367.153 666.507 366.65 666.81 366.213C667.116 365.776 667.533 365.433 668.059 365.184C668.59 364.935 669.191 364.81 669.863 364.81C670.808 364.81 671.55 365.028 672.089 365.466C672.632 365.903 673.017 366.48 673.245 367.196Z" fill="#888888" fill-opacity="0.7"/>
</g>
</g>
</g>
</svg>
